{"accessors" : [{"bufferView" : 0, "byteOffset" : 0, "componentType" : 5123, "count" : 6336, "type" : "SCALAR", "max" : [5266], "min" : [0]}, {"bufferView" : 1, "byteOffset" : 0, "componentType" : 5126, "count" : 5267, "type" : "VEC3", "max" : [1.8376275300979614, 1.8860682249069214, 1.7745057344436646], "min" : [-1.8376272916793823, -1.465790867805481, -1.7700834274291992], "name" : "POSITION"}, {"bufferView" : 1, "byteOffset" : 12, "componentType" : 5126, "count" : 5267, "type" : "VEC3", "max" : [0.9998794794082642, 0.9990807175636292, 0.9995551109313965], "min" : [-0.9998794794082642, -1.0000042915344238, -0.995475709438324], "name" : "NORMAL"}, {"bufferView" : 1, "byteOffset" : 24, "componentType" : 5126, "count" : 5267, "type" : "VEC2", "max" : [1, 1], "min" : [0, 0.05010706186294556], "name" : "TEXCOORD_0"}], "asset" : {"generator" : "Aspose.3D 22.10", "version" : "2.0"}, "buffers" : [{"uri" : "data:application/octet-stream;base64,", "byteLength" : 215432}], "bufferViews" : [{"buffer" : 0, "byteOffset" : 0, "byteLength" : 12672, "target" : 34963}, {"buffer" : 0, "byteOffset" : 12676, "byteLength" : 202752, "byteStride" : 32, "target" : 34962}], "materials" : [{"name" : "Octopus", "pbrMetallicRoughness" : {"baseColorFactor" : [0.800000011920929, 0.800000011920929, 0.800000011920929, 1], "metallicFactor" : 0, "roughnessFactor" : 0.5}, "emissiveFactor" : [0, 0, 0], "alphaMode" : "OPAQUE", "doubleSided" : true}], "meshes" : [{"primitives" : [{"attributes" : {"POSITION" : 1, "NORMAL" : 2, "TEXCOORD_0" : 3}, "indices" : 0, "material" : 0, "mode" : 4}]}], "nodes" : [{"mesh" : 0, "name" : "Octopus"}], "scene" : 0, "scenes" : [{"nodes" : [0]}]}